HIERARCHY
ROOT Hips
{
	OFFSET 0.000000 100.481300 0.000000
	CHANNELS 6 Xposition Yposition Zposition Xrotation Yrotation Zrotation
	JOINT Spine
	{
		OFFSET -0.279200 12.230698 -2.892100
		CHANNELS 3 Xrotation Yrotation Zrotation
		JOINT Spine1
		{
			OFFSET -0.325700 14.269203 -3.374200
			CHANNELS 3 Xrotation Yrotation Zrotation
			JOINT Spine2
			{
				OFFSET -0.372300 16.307602 -0.352600
				CHANNELS 3 Xrotation Yrotation Zrotation
				JOINT Neck
				{
					OFFSET -0.418800 17.814194 8.416900
					CHANNELS 3 Xrotation Yrotation Zrotation
					JOINT Head
					{
						OFFSET 0.000000 7.031097 3.806800
						CHANNELS 3 Xrotation Yrotation Zrotation
						JOINT HeadTop_End
						{
							OFFSET 0.000000 24.646606 12.978600
							CHANNELS 3 Xrotation Yrotation Zrotation
							End Site
							{
								OFFSET 0.000000 27.854965 0.000000
							}
						}
					}
				}
				JOINT LeftShoulder
				{
					OFFSET 16.952999 14.495407 -7.737500
					CHANNELS 3 Xrotation Yrotation Zrotation
					JOINT LeftArm
					{
						OFFSET 9.308998 -2.777710 0.208600
						CHANNELS 3 Xrotation Yrotation Zrotation
						JOINT LeftForeArm
						{
							OFFSET 29.972298 0.000000 0.000000
							CHANNELS 3 Xrotation Yrotation Zrotation
							JOINT LeftHand
							{
								OFFSET 26.026505 0.000000 0.000000
								CHANNELS 3 Xrotation Yrotation Zrotation
								JOINT LeftHandThumb1
								{
									OFFSET 12.240501 -7.147949 9.207150
									CHANNELS 3 Xrotation Yrotation Zrotation
									JOINT LeftHandThumb2
									{
										OFFSET 4.138618 -2.389435 2.389433
										CHANNELS 3 Xrotation Yrotation Zrotation
										JOINT LeftHandThumb3
										{
											OFFSET 2.726913 -1.574387 1.574386
											CHANNELS 3 Xrotation Yrotation Zrotation
											JOINT LeftHandThumb4
											{
												OFFSET 3.941010 -2.275345 2.275342
												CHANNELS 3 Xrotation Yrotation Zrotation
												End Site
												{
													OFFSET -0.005798 5.087799 0.009903
												}
											}
										}
									}
								}
								JOINT LeftHandIndex1
								{
									OFFSET 24.424698 -1.985611 5.953459
									CHANNELS 3 Xrotation Yrotation Zrotation
									JOINT LeftHandIndex2
									{
										OFFSET 6.426697 0.000000 0.000000
										CHANNELS 3 Xrotation Yrotation Zrotation
										JOINT LeftHandIndex3
										{
											OFFSET 5.337898 0.000000 0.000000
											CHANNELS 3 Xrotation Yrotation Zrotation
											JOINT LeftHandIndex4
											{
												OFFSET 4.409401 0.000000 0.000000
												CHANNELS 3 Xrotation Yrotation Zrotation
												End Site
												{
													OFFSET 0.000000 4.409363 0.014373
												}
											}
										}
									}
								}
								JOINT LeftHandMiddle1
								{
									OFFSET 23.810104 0.000000 0.000000
									CHANNELS 3 Xrotation Yrotation Zrotation
									JOINT LeftHandMiddle2
									{
										OFFSET 7.176498 0.000000 0.000000
										CHANNELS 3 Xrotation Yrotation Zrotation
										JOINT LeftHandMiddle3
										{
											OFFSET 6.774902 0.000000 0.000000
											CHANNELS 3 Xrotation Yrotation Zrotation
											JOINT LeftHandMiddle4
											{
												OFFSET 5.403328 0.000000 0.000000
												CHANNELS 3 Xrotation Yrotation Zrotation
												End Site
												{
													OFFSET -0.027702 5.403244 0.017414
												}
											}
										}
									}
								}
								JOINT LeftHandRing1
								{
									OFFSET 22.908401 -0.839279 -6.020567
									CHANNELS 3 Xrotation Yrotation Zrotation
									JOINT LeftHandRing2
									{
										OFFSET 6.337502 0.000000 0.000000
										CHANNELS 3 Xrotation Yrotation Zrotation
										JOINT LeftHandRing3
										{
											OFFSET 5.779297 0.000000 0.000000
											CHANNELS 3 Xrotation Yrotation Zrotation
											JOINT LeftHandRing4
											{
												OFFSET 4.965698 0.000000 0.000000
												CHANNELS 3 Xrotation Yrotation Zrotation
												End Site
												{
													OFFSET 0.000000 4.965668 0.016186
												}
											}
										}
									}
								}
								JOINT LeftHandPinky1
								{
									OFFSET 20.037003 -1.530319 -10.950146
									CHANNELS 3 Xrotation Yrotation Zrotation
									JOINT LeftHandPinky2
									{
										OFFSET 5.254700 0.000000 0.000000
										CHANNELS 3 Xrotation Yrotation Zrotation
										JOINT LeftHandPinky3
										{
											OFFSET 4.810204 0.000000 0.000000
											CHANNELS 3 Xrotation Yrotation Zrotation
											JOINT LeftHandPinky4
											{
												OFFSET 3.647202 0.000000 0.000000
												CHANNELS 3 Xrotation Yrotation Zrotation
												End Site
												{
													OFFSET 0.000000 3.647186 0.011889
												}
											}
										}
									}
								}
							}
						}
					}
				}
				JOINT RightShoulder
				{
					OFFSET -15.141001 14.495407 -7.737500
					CHANNELS 3 Xrotation Yrotation Zrotation
					JOINT RightArm
					{
						OFFSET -9.308998 -2.777710 0.208500
						CHANNELS 3 Xrotation Yrotation Zrotation
						JOINT RightForeArm
						{
							OFFSET -29.972300 0.000000 0.000000
							CHANNELS 3 Xrotation Yrotation Zrotation
							JOINT RightHand
							{
								OFFSET -26.026505 0.000000 0.000000
								CHANNELS 3 Xrotation Yrotation Zrotation
								JOINT RightHandThumb1
								{
									OFFSET -12.240601 -7.148026 9.207092
									CHANNELS 3 Xrotation Yrotation Zrotation
									JOINT RightHandThumb2
									{
										OFFSET -4.138618 -2.389435 2.389433
										CHANNELS 3 Xrotation Yrotation Zrotation
										JOINT RightHandThumb3
										{
											OFFSET -2.726974 -1.574417 1.574421
											CHANNELS 3 Xrotation Yrotation Zrotation
											JOINT RightHandThumb4
											{
												OFFSET -3.941010 -2.275345 2.275343
												CHANNELS 3 Xrotation Yrotation Zrotation
												End Site
												{
													OFFSET 0.005814 5.087799 0.009927
												}
											}
										}
									}
								}
								JOINT RightHandIndex1
								{
									OFFSET -24.424698 -1.985657 5.953444
									CHANNELS 3 Xrotation Yrotation Zrotation
									JOINT RightHandIndex2
									{
										OFFSET -6.426697 0.000000 0.000000
										CHANNELS 3 Xrotation Yrotation Zrotation
										JOINT RightHandIndex3
										{
											OFFSET -5.337898 0.000000 0.000000
											CHANNELS 3 Xrotation Yrotation Zrotation
											JOINT RightHandIndex4
											{
												OFFSET -4.409401 0.000000 0.000000
												CHANNELS 3 Xrotation Yrotation Zrotation
												End Site
												{
													OFFSET 0.000000 4.409363 0.014408
												}
											}
										}
									}
								}
								JOINT RightHandMiddle1
								{
									OFFSET -23.810097 0.000000 0.000000
									CHANNELS 3 Xrotation Yrotation Zrotation
									JOINT RightHandMiddle2
									{
										OFFSET -7.176498 0.000000 0.000000
										CHANNELS 3 Xrotation Yrotation Zrotation
										JOINT RightHandMiddle3
										{
											OFFSET -6.774902 0.000000 0.000000
											CHANNELS 3 Xrotation Yrotation Zrotation
											JOINT RightHandMiddle4
											{
												OFFSET -5.403328 0.000000 0.000000
												CHANNELS 3 Xrotation Yrotation Zrotation
												End Site
												{
													OFFSET 0.027702 5.403244 0.017457
												}
											}
										}
									}
								}
								JOINT RightHandRing1
								{
									OFFSET -22.908302 -0.839325 -6.020576
									CHANNELS 3 Xrotation Yrotation Zrotation
									JOINT RightHandRing2
									{
										OFFSET -6.337502 0.000000 0.000000
										CHANNELS 3 Xrotation Yrotation Zrotation
										JOINT RightHandRing3
										{
											OFFSET -5.779297 0.000000 0.000000
											CHANNELS 3 Xrotation Yrotation Zrotation
											JOINT RightHandRing4
											{
												OFFSET -4.965698 0.000000 0.000000
												CHANNELS 3 Xrotation Yrotation Zrotation
												End Site
												{
													OFFSET 0.000000 4.965668 0.016226
												}
											}
										}
									}
								}
								JOINT RightHandPinky1
								{
									OFFSET -20.037003 -1.530334 -10.950259
									CHANNELS 3 Xrotation Yrotation Zrotation
									JOINT RightHandPinky2
									{
										OFFSET -5.254700 0.000000 0.000000
										CHANNELS 3 Xrotation Yrotation Zrotation
										JOINT RightHandPinky3
										{
											OFFSET -4.810204 0.000000 0.000000
											CHANNELS 3 Xrotation Yrotation Zrotation
											JOINT RightHandPinky4
											{
												OFFSET -3.647202 0.000000 0.000000
												CHANNELS 3 Xrotation Yrotation Zrotation
												End Site
												{
													OFFSET 0.000000 3.647186 0.011917
												}
											}
										}
									}
								}
							}
						}
					}
				}
			}
		}
	}
	JOINT LeftUpLeg
	{
		OFFSET 15.427100 -6.655098 0.678600
		CHANNELS 3 Xrotation Yrotation Zrotation
		JOINT LeftLeg
		{
			OFFSET 4.081073 -39.591068 13.024000
			CHANNELS 3 Xrotation Yrotation Zrotation
			JOINT LeftFoot
			{
				OFFSET -4.081074 -37.707932 -15.979700
				CHANNELS 3 Xrotation Yrotation Zrotation
				JOINT LeftToeBase
				{
					OFFSET 5.346399 -15.068900 20.645000
					CHANNELS 3 Xrotation Yrotation Zrotation
					JOINT LeftToe_End
					{
						OFFSET 2.754700 0.931300 11.300900
						CHANNELS 3 Xrotation Yrotation Zrotation
						End Site
						{
							OFFSET 0.000000 11.669021 0.000000
						}
					}
				}
			}
		}
	}
	JOINT RightUpLeg
	{
		OFFSET -15.569500 -6.655098 0.678600
		CHANNELS 3 Xrotation Yrotation Zrotation
		JOINT RightLeg
		{
			OFFSET -4.081825 -39.591045 13.023800
			CHANNELS 3 Xrotation Yrotation Zrotation
			JOINT RightFoot
			{
				OFFSET 4.081824 -37.707954 -15.979600
				CHANNELS 3 Xrotation Yrotation Zrotation
				JOINT RightToeBase
				{
					OFFSET -5.346400 -15.068900 20.645000
					CHANNELS 3 Xrotation Yrotation Zrotation
					JOINT RightToe_End
					{
						OFFSET -2.754700 0.931300 11.300900
						CHANNELS 3 Xrotation Yrotation Zrotation
						End Site
						{
							OFFSET 0.000000 11.669021 0.000000
						}
					}
				}
			}
		}
	}
}
MOTION
Frames: 4
Frame Time: 0.033333
2.019153 64.713150 -1.123093 16.158884 -9.306253 -4.662108 11.288903 17.225828 -10.277017 2.869508 4.087947 -0.126405 2.861617 4.312283 -0.311446 -0.688860 -2.356466 4.369683 -6.951125 -9.322002 11.106341 -0.000000 0.000000 0.000000 1.124725 -1.331167 -15.116523 -9.590823 31.513216 -40.008410 -0.000002 -10.721321 0.000006 15.668194 -19.583471 20.990297 -5.456653 -6.701465 3.223877 8.086118 27.604259 1.097685 -10.020030 -14.017828 7.739290 -0.000001 0.000001 -0.000002 -1.866389 -6.065079 -12.588951 0.237187 1.651685 -16.342805 0.250133 1.695191 -16.786189 -0.000000 0.000000 -0.000000 -1.264332 -0.680477 -18.650038 0.387942 2.098231 -20.947905 0.466470 2.292749 -22.997826 0.000001 0.000004 0.000001 0.028228 3.645195 -26.113072 0.502166 2.375013 -23.874308 0.587687 2.559333 -25.860519 -0.000001 -0.000000 0.000001 0.229228 4.355132 -33.121179 0.780411 2.923311 -29.888645 0.780017 2.922620 -29.880852 -0.000001 0.000000 0.000001 2.870354 11.957094 -6.152313 -33.803665 70.877536 6.927822 -0.000372 94.709555 0.000346 17.111794 20.467041 -11.105439 -15.297102 26.938621 3.978341 9.846904 -45.621688 -5.486210 -7.028260 3.105910 -14.201048 -0.000000 -0.000001 0.000001 0.531207 -4.798184 13.845733 0.169906 -1.247736 15.507866 0.169802 -1.247375 15.503221 -0.000001 -0.000002 0.000000 1.576773 -6.016275 32.822266 0.816454 -2.636011 34.413621 0.910228 -2.767785 36.402846 -0.000001 -0.000000 -0.000000 2.347864 -6.542691 43.827398 1.218022 -3.142192 42.367848 1.329179 -3.259699 44.358472 0.000001 0.000000 -0.000001 3.146678 -6.893239 54.105535 1.765787 -3.652473 51.591451 1.765237 -3.652027 51.582658 0.000001 -0.000000 0.000004 -88.379902 -2.002407 2.761793 44.380602 11.634522 0.221818 21.290702 26.697750 10.758198 -4.443498 0.000007 -0.000006 -0.000000 -0.000000 -0.000000 26.062255 -5.827680 4.492482 33.950599 -6.465158 11.588731 -38.378676 -19.890312 14.061710 -42.282402 -0.000017 0.000000 0.000000 -0.000001 -0.000001 
-0.366332 65.488655 2.014904 17.439368 -6.883183 -5.213761 12.359701 15.939006 -11.187098 2.594431 3.808821 -1.310704 2.579760 3.804137 -1.356667 -0.358436 -2.457993 3.932738 -6.614952 -11.760118 12.360423 -0.000002 0.000000 0.000000 1.004721 -1.606261 -12.872862 -7.542389 35.654759 -38.889468 -0.000003 -22.046637 0.000011 11.070862 -11.794117 16.120544 -3.577824 -5.608657 5.109325 8.368364 28.273544 0.946597 -9.830795 -13.728720 7.789617 -0.000003 0.000000 -0.000000 -1.627517 -4.389757 -13.298260 0.222526 1.600864 -15.826313 0.232459 1.635471 -16.177870 0.000000 -0.000000 -0.000000 -1.078007 0.092029 -19.478933 0.368415 2.046538 -20.407987 0.437934 2.224336 -22.273460 -0.000003 -0.000001 -0.000000 0.475549 4.591416 -27.856416 0.520680 2.416379 -24.317271 0.552555 2.485609 -25.062191 -0.000002 0.000000 -0.000001 0.681246 5.285537 -34.944365 0.782337 2.926660 -29.926320 0.772352 2.909272 -29.730294 0.000002 -0.000002 0.000003 2.894255 12.912091 -10.623761 -48.196742 65.485224 16.197377 -0.000105 96.184759 0.000100 12.599518 19.628678 -9.269791 -15.533110 27.210878 4.048273 9.708632 -44.293104 -5.397449 -7.036808 3.164971 -14.153499 -0.000000 -0.000000 0.000002 0.356291 -4.108166 13.584127 0.158155 -1.204621 14.958895 0.151323 -1.178734 14.630279 -0.000001 -0.000003 -0.000000 1.470337 -5.904202 31.610320 0.769253 -2.565832 33.373527 0.826940 -2.651233 34.640865 -0.000000 -0.000001 0.000000 2.518594 -6.786755 42.329100 1.136268 -3.050273 40.854227 1.263946 -3.191734 43.199123 -0.000001 0.000000 -0.000000 3.689202 -7.361028 52.473949 1.652091 -3.559550 49.783828 1.625597 -3.537032 49.355910 -0.000001 -0.000000 0.000004 -89.088985 -1.897592 2.293075 47.235505 9.475675 0.395825 18.923994 26.272785 9.078232 -4.443497 -0.000012 -0.000001 -0.000000 0.000002 0.000000 27.818469 -5.472049 8.303026 30.677877 -7.643845 10.857624 -30.660747 -25.247029 13.277170 -49.752341 -0.000007 0.000015 0.000000 0.000003 0.000001 
-2.769644 66.269730 4.925610 18.662191 -4.393314 -5.761017 13.436644 14.436301 -12.107692 2.261934 3.433619 -2.643043 2.236907 3.185466 -2.513621 0.036868 -2.577123 3.451489 -5.967508 -14.344309 13.799207 0.000003 0.000000 0.000000 0.909212 -1.876609 -10.679466 -5.504380 39.801490 -37.605396 -0.000010 -32.993707 0.000004 6.319927 -4.455997 10.926667 -1.608548 -4.371594 6.832195 8.654069 28.969660 0.788287 -9.635438 -13.426946 7.838394 0.000000 -0.000001 0.000001 -1.341887 -2.682017 -14.082286 0.205318 1.538871 -15.198016 0.215119 1.574527 -15.559152 -0.000001 0.000001 0.000001 -0.886925 0.820828 -20.359713 0.344490 1.981079 -19.727150 0.409777 2.154372 -21.536565 0.000000 -0.000002 -0.000002 0.983596 5.523474 -29.583393 0.540176 2.459015 -24.775420 0.517615 2.409596 -24.244579 0.000001 0.000001 -0.000002 1.141910 6.239190 -36.879115 0.783620 2.928882 -29.951489 0.764957 2.896285 -29.584042 -0.000000 -0.000001 -0.000001 3.074292 13.870293 -15.023276 -58.366466 60.548698 20.699443 -0.000063 97.558898 0.000064 8.285586 18.606344 -7.586023 -15.782387 27.499679 4.119706 9.563610 -42.887393 -5.300510 -7.044185 3.227721 -14.103311 -0.000001 -0.000001 0.000002 0.190751 -3.426445 13.459958 0.146227 -1.159046 14.380390 0.132900 -1.105811 13.706620 -0.000001 -0.000002 -0.000004 1.379336 -5.806516 30.468354 0.722176 -2.492941 32.306648 0.744997 -2.528654 32.827733 -0.000002 -0.000001 0.000000 2.701225 -7.065235 40.953302 1.055065 -2.953926 39.303958 1.198441 -3.120615 42.009526 0.000002 0.000000 -0.000000 4.243435 -7.886457 50.966998 1.541293 -3.462999 47.974713 1.482893 -3.409564 47.000687 -0.000001 -0.000002 0.000002 -89.415202 -1.882902 2.008730 49.367842 7.612336 0.530738 16.892967 25.533817 7.525431 -4.443504 0.000015 0.000002 -0.000000 -0.000002 0.000000 26.666706 -5.775667 11.261675 31.574513 -9.942178 10.091870 -19.700188 -30.544657 14.261706 -60.093944 -0.000006 0.000016 -0.000001 0.000000 0.000002 
-5.085513 66.274330 6.876535 19.868370 -2.114191 -5.962869 14.584689 12.955556 -13.451104 1.899345 2.987829 -4.005202 1.861332 2.500349 -3.683649 0.450408 -2.701816 2.956287 -5.122078 -16.938323 15.343634 0.000000 0.000000 0.000001 0.850165 -1.866966 -8.972384 -3.847179 43.929229 -35.351720 -0.000005 -43.082743 0.000011 3.748839 0.693096 6.567752 0.377619 -3.025151 8.322306 8.934233 29.663259 0.627808 -9.438571 -13.116174 7.886965 0.000000 0.000003 -0.000000 -1.009914 -0.986541 -14.914743 0.186497 1.467857 -14.480503 0.198214 1.512496 -14.931366 -0.000002 0.000000 -0.000001 -0.695814 1.488606 -21.255704 0.317735 1.904859 -18.938081 0.382191 2.083173 -20.790415 0.000001 0.000004 -0.000002 1.538539 6.419604 -31.242614 0.559793 2.501031 -25.228764 0.483074 2.331463 -23.409618 0.000001 0.000003 -0.000001 1.607850 7.201848 -38.861574 0.783430 2.928573 -29.947876 0.757071 2.882374 -29.427754 -0.000002 0.000001 -0.000001 3.247085 13.916676 -19.081549 -66.539361 56.451394 24.820699 -0.000051 98.131759 0.000053 4.933243 17.418690 -5.573302 -16.047417 27.800692 4.199987 9.412655 -41.413097 -5.195686 -7.050762 3.293714 -14.050723 0.000001 -0.000002 0.000001 0.029590 -2.752793 13.454633 0.134278 -1.111419 13.777527 0.114862 -1.029028 12.737987 0.000000 -0.000001 -0.000002 1.301257 -5.721962 29.387756 0.675457 -2.417566 31.216253 0.665090 -2.400378 30.969300 0.000000 0.000000 0.000000 2.892580 -7.374827 39.685277 0.974896 -2.853310 37.721574 1.133025 -3.046537 40.793383 -0.000002 -0.000001 -0.000002 4.804368 -8.464174 49.566994 1.433739 -3.363141 46.168404 1.338952 -3.269647 44.529992 0.000002 0.000001 0.000001 -90.512233 -1.917417 1.759159 51.023402 6.560228 0.841769 16.087635 24.354042 5.968271 -4.443506 -0.000003 -0.000010 -0.000000 -0.000001 -0.000000 21.413126 -6.710162 12.271917 37.944300 -11.816415 9.413795 -11.242226 -32.761658 16.525026 -61.099587 0.000000 0.000001 -0.000002 0.000001 -0.000002 
